<?xml version="1.0" standalone="no"?>
<!DOCTYPE svg PUBLIC "-//W3C//DTD SVG 20010904//EN"
 "http://www.w3.org/TR/2001/REC-SVG-20010904/DTD/svg10.dtd">
<svg version="1.0" xmlns="http://www.w3.org/2000/svg"
 width="1200.000000pt" height="1476.000000pt" viewBox="0 0 1200.000000 1476.000000"
 preserveAspectRatio="xMidYMid meet">

<g transform="translate(0.000000,1476.000000) scale(0.100000,-0.100000)"
fill="#000000" stroke="none">
<path d="M4013 5099 c-141 -18 -267 -113 -313 -235 -45 -121 -45 -277 0 -398
30 -78 111 -165 189 -200 118 -53 294 -53 412 0 78 35 159 122 189 200 45 120
45 277 0 397 -39 104 -145 197 -255 225 -62 16 -154 20 -222 11z m170 -163
c81 -33 127 -132 127 -271 0 -139 -46 -238 -127 -271 -42 -18 -134 -18 -176 0
-81 33 -127 132 -127 271 0 137 46 237 125 271 39 17 137 18 178 0z"/>
<path d="M7950 5103 c-179 -16 -314 -102 -376 -237 -52 -115 -50 -296 5 -410
34 -69 59 -99 125 -150 125 -95 365 -106 579 -26 l57 21 0 205 0 204 -165 0
-165 0 0 -75 0 -75 65 0 65 0 0 -85 0 -84 -36 -7 c-19 -3 -70 -4 -113 -2 -93
5 -153 35 -193 95 -41 60 -51 106 -46 207 5 103 22 150 76 202 83 80 264 87
426 16 27 -12 50 -22 52 -22 2 0 4 36 4 81 l0 80 -35 15 c-77 32 -239 56 -325
47z"/>
<path d="M2740 4665 l0 -425 100 0 100 0 2 292 3 291 160 -291 160 -292 118 0
117 0 0 425 0 425 -100 0 -100 0 -2 -291 -3 -292 -160 291 -160 291 -117 1
-118 0 0 -425z"/>
<path d="M5100 4665 l0 -425 110 0 110 0 0 425 0 425 -110 0 -110 0 0 -425z"/>
<path d="M5530 4665 l0 -425 100 0 100 0 2 310 3 310 99 -230 100 -230 66 0
66 0 100 230 99 230 3 -310 2 -310 100 0 100 0 0 425 0 425 -134 0 -134 0 -72
-167 c-40 -93 -86 -197 -102 -233 l-29 -65 -35 80 c-19 44 -65 149 -101 233
l-65 152 -134 0 -134 0 0 -425z"/>
<path d="M6889 5063 c-44 -116 -293 -792 -297 -805 -4 -16 6 -18 100 -18 l104
0 26 73 25 72 178 0 178 0 25 -72 26 -73 103 0 c57 0 103 3 103 8 0 4 -69 194
-154 422 l-153 415 -127 3 -126 3 -11 -28z m201 -348 c27 -81 50 -152 50 -156
0 -5 -52 -9 -115 -9 -63 0 -115 4 -115 9 0 7 58 181 101 300 15 42 15 42 79
-144z"/>
<path d="M8530 4665 l0 -425 300 0 300 0 0 80 0 80 -190 0 -190 0 0 100 0 100
175 0 175 0 0 80 0 80 -175 0 -175 0 0 85 0 85 185 0 185 0 0 80 0 80 -295 0
-295 0 0 -425z"/>
<path d="M2729 3613 c-44 -116 -293 -792 -297 -805 -4 -16 6 -18 100 -18 l104
0 26 73 25 72 178 0 178 0 25 -72 26 -73 103 0 c57 0 103 3 103 8 0 4 -69 194
-154 422 l-153 415 -127 3 -126 3 -11 -28z m201 -348 c27 -81 50 -152 50 -156
0 -5 -52 -9 -115 -9 -63 0 -115 4 -115 9 0 7 58 181 101 300 15 42 15 42 79
-144z"/>
<path d="M3250 3632 c0 -4 69 -194 154 -422 l153 -415 128 0 128 0 153 415
c85 228 154 418 154 422 0 5 -46 8 -103 8 l-103 0 -99 -277 c-54 -153 -106
-296 -115 -318 l-17 -39 -30 84 c-17 47 -68 190 -114 318 l-83 232 -103 0
c-57 0 -103 -3 -103 -8z"/>
<path d="M4369 3613 c-44 -116 -293 -792 -297 -805 -4 -16 6 -18 100 -18 l104
0 26 73 25 72 178 0 178 0 25 -72 26 -73 103 0 c57 0 103 3 103 8 0 4 -69 194
-154 422 l-153 415 -127 3 -126 3 -11 -28z m201 -348 c27 -81 50 -152 50 -156
0 -5 -52 -9 -115 -9 -63 0 -115 4 -115 9 0 7 58 181 101 300 15 42 15 42 79
-144z"/>
<path d="M5060 3215 l0 -425 110 0 110 0 0 425 0 425 -110 0 -110 0 0 -425z"/>
<path d="M5490 3215 l0 -425 300 0 300 0 0 80 0 80 -190 0 -190 0 0 345 0 345
-110 0 -110 0 0 -425z"/>
<path d="M6439 3613 c-44 -116 -293 -792 -297 -805 -4 -16 6 -18 100 -18 l104
0 26 73 25 72 178 0 178 0 25 -72 26 -73 103 0 c57 0 103 3 103 8 0 4 -69 194
-154 422 l-153 415 -127 3 -126 3 -11 -28z m201 -348 c27 -81 50 -152 50 -156
0 -5 -52 -9 -115 -9 -63 0 -115 4 -115 9 0 7 58 181 101 300 15 42 15 42 79
-144z"/>
<path d="M7130 3215 l0 -427 238 5 c178 3 250 9 288 21 116 36 166 101 166
214 0 37 -4 79 -10 93 -16 41 -63 91 -101 106 -32 14 -33 16 -16 25 66 35 98
92 98 169 -1 103 -47 161 -153 194 -42 13 -109 18 -282 22 l-228 6 0 -428z
m425 250 c19 -18 25 -35 25 -65 0 -30 -6 -47 -25 -65 -22 -23 -32 -25 -115
-25 l-90 0 0 90 0 90 90 0 c83 0 93 -2 115 -25z m31 -338 c18 -21 24 -40 24
-77 0 -37 -6 -56 -24 -77 -23 -27 -28 -28 -130 -31 l-106 -4 0 112 0 112 106
-4 c102 -3 107 -4 130 -31z"/>
<path d="M8010 3215 l0 -425 300 0 300 0 0 80 0 80 -190 0 -190 0 0 345 0 345
-110 0 -110 0 0 -425z"/>
<path d="M8750 3215 l0 -425 300 0 300 0 0 80 0 80 -190 0 -190 0 0 100 0 100
175 0 175 0 0 80 0 80 -175 0 -175 0 0 85 0 85 185 0 185 0 0 80 0 80 -295 0
-295 0 0 -425z"/>
</g>
</svg>
