<svg width="20" height="20" viewBox="0 0 20 20" fill="none" xmlns="http://www.w3.org/2000/svg">
<g clip-path="url(#clip0)">
<path d="M15.6187 5.20211C15.5086 5.12095 15.3835 5.06228 15.2507 5.02945C15.1179 4.99663 14.9799 4.99028 14.8447 5.01079C14.7094 5.0313 14.5795 5.07825 14.4624 5.14897C14.3453 5.21969 14.2432 5.31278 14.1621 5.42294L8.97207 12.4671L5.65124 9.81044C5.54483 9.72147 5.42172 9.65465 5.28913 9.61389C5.15655 9.57314 5.01716 9.55928 4.87915 9.57311C4.74113 9.58695 4.60727 9.62822 4.48542 9.69448C4.36357 9.76075 4.25617 9.85068 4.16955 9.95901C4.08292 10.0673 4.0188 10.1919 3.98094 10.3253C3.94309 10.4588 3.93227 10.5984 3.94912 10.7361C3.96596 10.8738 4.01014 11.0067 4.07905 11.1271C4.14796 11.2475 4.24021 11.3529 4.35041 11.4371L8.51707 14.7704C8.70186 14.9177 8.93166 14.9968 9.16791 14.9946C9.33042 14.9951 9.49081 14.9577 9.63634 14.8854C9.78187 14.8131 9.90852 14.7078 10.0062 14.5779L15.8396 6.66128C15.9212 6.5511 15.9803 6.42587 16.0134 6.29278C16.0465 6.1597 16.053 6.02138 16.0325 5.88579C16.0119 5.75019 15.9648 5.61999 15.8938 5.50266C15.8228 5.38533 15.7293 5.28319 15.6187 5.20211Z" fill="#4D4D4D"/>
<path d="M18.3333 0H1.66667C1.22464 0 0.800716 0.175595 0.488155 0.488155C0.175595 0.800716 0 1.22464 0 1.66667L0 18.3333C0 18.7754 0.175595 19.1993 0.488155 19.5118C0.800716 19.8244 1.22464 20 1.66667 20H18.3333C18.7754 20 19.1993 19.8244 19.5118 19.5118C19.8244 19.1993 20 18.7754 20 18.3333V1.66667C20 1.22464 19.8244 0.800716 19.5118 0.488155C19.1993 0.175595 18.7754 0 18.3333 0V0ZM18.3333 18.125C18.3333 18.1803 18.3114 18.2332 18.2723 18.2723C18.2332 18.3114 18.1803 18.3333 18.125 18.3333H1.875C1.84761 18.3334 1.82047 18.3281 1.79514 18.3177C1.76982 18.3073 1.74681 18.2919 1.72744 18.2726C1.70807 18.2532 1.69273 18.2302 1.6823 18.2049C1.67187 18.1795 1.66656 18.1524 1.66667 18.125V1.87417C1.66667 1.84685 1.67206 1.8198 1.68254 1.79457C1.69302 1.76934 1.70838 1.74643 1.72774 1.72715C1.74709 1.70787 1.77007 1.6926 1.79534 1.68222C1.82061 1.67184 1.84768 1.66656 1.875 1.66667H18.125C18.1803 1.66667 18.2332 1.68862 18.2723 1.72769C18.3114 1.76676 18.3333 1.81975 18.3333 1.875V18.125Z" fill="#4D4D4D"/>
</g>
<defs>
<clipPath id="clip0">
<rect width="20" height="20" fill="white"/>
</clipPath>
</defs>
</svg>
