<svg width="20" height="20" viewBox="0 0 20 20" fill="#324B6F" xmlns="http://www.w3.org/2000/svg">
<path fill-rule="evenodd" clip-rule="evenodd" d="M7.50096 10.5537C10.2555 10.5537 12.4636 8.31705 12.4636 5.52684C12.4636 2.73663 10.2555 0.5 7.50096 0.5C4.74639 0.5 2.53833 2.73663 2.53833 5.52684C2.53833 8.31705 4.74639 10.5537 7.50096 10.5537ZM7.5 13.0152C3.45422 13.0152 0 13.6621 0 16.2464C0 18.8298 3.4332 19.5 7.5 19.5C11.5448 19.5 15 18.8531 15 16.2688C15 13.6844 11.5668 13.0152 7.5 13.0152ZM17.8983 7.58767H19.1014C19.5966 7.58767 20.0004 7.99712 20.0004 8.49929C20.0004 9.00146 19.5966 9.4109 19.1014 9.4109H17.8983V10.5882C17.8983 11.0904 17.4956 11.4998 16.9994 11.4998C16.5042 11.4998 16.1004 11.0904 16.1004 10.5882V9.4109H14.8994C14.4031 9.4109 14.0004 9.00146 14.0004 8.49929C14.0004 7.99712 14.4031 7.58767 14.8994 7.58767H16.1004V6.41143C16.1004 5.90926 16.5042 5.49981 16.9994 5.49981C17.4956 5.49981 17.8983 5.90926 17.8983 6.41143V7.58767Z"/>
</svg>
