<svg width="32" height="32" viewBox="0 0 32 32" fill="none" xmlns="http://www.w3.org/2000/svg">
<path d="M15.9987 31.6673C19.0973 31.6673 22.1263 30.7485 24.7026 29.027C27.279 27.3055 29.287 24.8587 30.4728 21.996C31.6586 19.1333 31.9688 15.9833 31.3643 12.9442C30.7598 9.90521 29.2677 7.11367 27.0767 4.92265C24.8857 2.73163 22.0941 1.23952 19.0551 0.635022C16.0161 0.0305202 12.866 0.340773 10.0033 1.52655C7.14061 2.71232 4.69382 4.72035 2.97234 7.29672C1.25087 9.87309 0.332031 12.9021 0.332031 16.0007C0.336971 20.1542 1.98915 24.1362 4.92615 27.0732C7.86315 30.0102 11.8452 31.6624 15.9987 31.6673ZM15.9987 3.66732C18.438 3.66732 20.8225 4.39066 22.8507 5.74587C24.8789 7.10107 26.4597 9.02727 27.3932 11.2809C28.3267 13.5345 28.5709 16.0143 28.095 18.4068C27.6192 20.7992 26.4445 22.9968 24.7197 24.7216C22.9948 26.4465 20.7972 27.6211 18.4048 28.097C16.0124 28.5729 13.5326 28.3287 11.2789 27.3952C9.02531 26.4617 7.09911 24.8809 5.74391 22.8527C4.3887 20.8245 3.66536 18.44 3.66536 16.0007C3.66889 12.7307 4.96943 9.59576 7.28161 7.28357C9.5938 4.97139 12.7288 3.67085 15.9987 3.66732Z" fill="#324B6F"/>
<path d="M8.36589 17.666H14.0019C14.0903 17.666 14.1751 17.7011 14.2376 17.7636C14.3001 17.8261 14.3352 17.9109 14.3352 17.9993V23.6353C14.3352 24.0773 14.5108 24.5013 14.8234 24.8138C15.1359 25.1264 15.5599 25.302 16.0019 25.302C16.4439 25.302 16.8678 25.1264 17.1804 24.8138C17.493 24.5013 17.6686 24.0773 17.6686 23.6353V17.9993C17.6686 17.9109 17.7037 17.8261 17.7662 17.7636C17.8287 17.7011 17.9135 17.666 18.0019 17.666H23.6379C24.0799 17.666 24.5038 17.4904 24.8164 17.1778C25.129 16.8653 25.3046 16.4413 25.3046 15.9993C25.3046 15.5573 25.129 15.1334 24.8164 14.8208C24.5038 14.5082 24.0799 14.3326 23.6379 14.3326H18.0019C17.9135 14.3326 17.8287 14.2975 17.7662 14.235C17.7037 14.1725 17.6686 14.0877 17.6686 13.9993V8.36198C17.6686 7.91995 17.493 7.49603 17.1804 7.18347C16.8678 6.87091 16.4439 6.69531 16.0019 6.69531C15.5599 6.69531 15.1359 6.87091 14.8234 7.18347C14.5108 7.49603 14.3352 7.91995 14.3352 8.36198V13.9993C14.3352 14.0877 14.3001 14.1725 14.2376 14.235C14.1751 14.2975 14.0903 14.3326 14.0019 14.3326H8.36589C7.92386 14.3326 7.49993 14.5082 7.18737 14.8208C6.87481 15.1334 6.69922 15.5573 6.69922 15.9993C6.69922 16.4413 6.87481 16.8653 7.18737 17.1778C7.49993 17.4904 7.92386 17.666 8.36589 17.666Z" fill="#324B6F"/>
</svg>
