<svg width="100%" height="100%" viewBox="0 0 34 34" fill="none" xmlns="http://www.w3.org/2000/svg">
<g id="Iconly/Light-Outline/Arrow - Left">
<g id="Arrow - Left">
<path id="Stroke 1" d="M28.3335 17.3886C28.3335 17.9265 27.9338 18.371 27.4152 18.4414L27.271 18.4511L6.021 18.4511C5.43419 18.4511 4.9585 17.9754 4.9585 17.3886C4.9585 16.8507 5.35822 16.4061 5.87682 16.3358L6.021 16.3261L27.271 16.3261C27.8578 16.3261 28.3335 16.8018 28.3335 17.3886Z" fill="current"/>
<path id="Stroke 3" d="M15.341 25.1702C15.7568 25.5843 15.7583 26.257 15.3442 26.6728C14.9678 27.0509 14.3776 27.0864 13.961 26.7787L13.8416 26.6761L5.27079 18.1421C4.89164 17.7645 4.85715 17.1722 5.16733 16.7556L5.27073 16.6363L13.8416 8.10087C14.2574 7.6868 14.9301 7.6882 15.3442 8.10399C15.7206 8.48198 15.7537 9.07232 15.4442 9.48763L15.3411 9.60658L7.52667 17.3896L15.341 25.1702Z" fill="current"/>
</g>
</g>
</svg>
