<svg width="100%" height="100%" viewBox="0 0 32 32" fill="none" xmlns="http://www.w3.org/2000/svg">
<path d="M27.2644 18.7981C27.2644 18.4445 27.1239 18.1054 26.8738 17.8553C26.6238 17.6053 26.2847 17.4648 25.931 17.4648H10.9853C10.9113 17.4636 10.8399 17.4377 10.7822 17.3914C10.7245 17.345 10.6838 17.2808 10.6667 17.2088L9.13333 10.5421C9.12175 10.4936 9.12121 10.4431 9.13175 10.3944C9.14228 10.3456 9.16363 10.2998 9.19421 10.2604C9.2248 10.221 9.26383 10.189 9.30845 10.1666C9.35307 10.1443 9.40212 10.1323 9.452 10.1315H27.04C27.1456 10.1316 27.2496 10.1567 27.3436 10.2049C27.4375 10.253 27.5187 10.3228 27.5804 10.4085C27.6421 10.4941 27.6826 10.5932 27.6985 10.6976C27.7145 10.802 27.7054 10.9086 27.672 11.0088L25.1652 18.1776C25.1098 18.3439 25.0877 18.5195 25.1001 18.6944C25.1126 18.8693 25.1594 19.04 25.2378 19.1968C25.3162 19.3536 25.4248 19.4935 25.5573 19.6083C25.6897 19.7232 25.8435 19.8108 26.0099 19.8662C26.3458 19.9781 26.5572 20.083 26.8738 19.9246C27.0307 19.8461 27.3258 19.6066 27.4406 19.4742C27.5555 19.3417 27.6431 19.1879 27.6985 19.0216L30.54 10.8501C30.6693 10.4632 30.7046 10.051 30.6431 9.64773C30.5816 9.24442 30.4249 8.86155 30.1861 8.53076C29.9473 8.19998 29.6332 7.93079 29.2698 7.74543C28.9063 7.56008 28.504 7.46389 28.096 7.46482H8.68533C8.60999 7.46486 8.53687 7.43928 8.47799 7.39227C8.41912 7.34527 8.37798 7.27963 8.36133 7.20615L7.19067 2.11415C7.05936 1.54902 6.74017 1.04518 6.28531 0.685018C5.83045 0.324861 5.26685 0.129709 4.68667 0.131482H1.33333C0.979711 0.131482 0.640573 0.271958 0.390524 0.522006C0.140476 0.772054 0 1.11119 0 1.46482C0 1.81844 0.140476 2.15758 0.390524 2.40762C0.640573 2.65767 0.979711 2.79815 1.33333 2.79815L4.32 2.72482C4.39675 2.72337 4.47168 2.74824 4.53233 2.7953C4.59298 2.84237 4.63568 2.90878 4.65333 2.98348L9.12933 22.4502C9.14491 22.5166 9.13955 22.5862 9.11401 22.6494C9.08847 22.7127 9.04399 22.7665 8.98667 22.8035C8.43495 23.1625 8.01656 23.6929 7.79592 24.3131C7.57529 24.9332 7.56464 25.6087 7.76563 26.2355C7.96662 26.8623 8.36809 27.4057 8.90822 27.7819C9.44835 28.1581 10.0972 28.3463 10.7548 28.3176C11.4124 28.2888 12.0423 28.0447 12.5475 27.6227C13.0528 27.2008 13.4052 26.6244 13.5507 25.9825C13.6962 25.3405 13.6266 24.6685 13.3527 24.07C13.0787 23.4715 12.6156 22.9796 12.0347 22.6701C11.9929 22.6472 11.9563 22.6158 11.9274 22.5779C11.8984 22.5401 11.8778 22.4965 11.8667 22.4502L11.4267 20.5341C11.4163 20.4856 11.417 20.4354 11.4285 20.3872C11.4401 20.339 11.4623 20.2939 11.4934 20.2553C11.5246 20.2167 11.564 20.1856 11.6087 20.1642C11.6535 20.1428 11.7024 20.1316 11.752 20.1315H25.931C26.2847 20.1315 26.6924 20.0825 26.9813 19.7936C27.2314 19.5436 27.2644 19.1518 27.2644 18.7981Z" fill="current"/>
<ellipse cx="25.1035" cy="25.2349" rx="3.03448" ry="3.03448" fill="current"/>
</svg>
