<svg width="20" height="20" viewBox="0 0 20 20" fill="none" xmlns="http://www.w3.org/2000/svg">
<g clip-path="url(#clip0)">
<path d="M18.3333 0H1.66667C1.22464 0 0.800716 0.175595 0.488155 0.488155C0.175595 0.800716 0 1.22464 0 1.66667L0 18.3333C0 18.7754 0.175595 19.1993 0.488155 19.5118C0.800716 19.8244 1.22464 20 1.66667 20H18.3333C18.7754 20 19.1993 19.8244 19.5118 19.5118C19.8244 19.1993 20 18.7754 20 18.3333V1.66667C20 1.22464 19.8244 0.800716 19.5118 0.488155C19.1993 0.175595 18.7754 0 18.3333 0V0ZM18.3333 18.125C18.3333 18.1803 18.3114 18.2332 18.2723 18.2723C18.2332 18.3114 18.1803 18.3333 18.125 18.3333H1.875C1.84761 18.3334 1.82047 18.3281 1.79514 18.3177C1.76982 18.3073 1.74681 18.2919 1.72744 18.2726C1.70807 18.2532 1.69273 18.2302 1.6823 18.2049C1.67187 18.1795 1.66656 18.1524 1.66667 18.125V1.87417C1.66667 1.84685 1.67206 1.8198 1.68254 1.79457C1.69302 1.76934 1.70838 1.74643 1.72774 1.72715C1.74709 1.70787 1.77007 1.6926 1.79534 1.68222C1.82061 1.67184 1.84768 1.66656 1.875 1.66667H18.125C18.1803 1.66667 18.2332 1.68862 18.2723 1.72769C18.3114 1.76676 18.3333 1.81975 18.3333 1.875V18.125Z" fill="#4D4D4D"/>
</g>
<defs>
<clipPath id="clip0">
<rect width="20" height="20" fill="white"/>
</clipPath>
</defs>
</svg>
