<svg width="21" height="21" viewBox="0 0 21 21" fill="none" xmlns="http://www.w3.org/2000/svg">
<path d="M20.0221 15.979H17.5221V8.479C17.5208 7.37434 17.0814 6.3153 16.3003 5.53419C15.5192 4.75307 14.4601 4.31366 13.3555 4.31234H5.85547V1.81234C5.85547 1.59132 5.76767 1.37936 5.61139 1.22308C5.45511 1.0668 5.24315 0.979004 5.02214 0.979004C4.80112 0.979004 4.58916 1.0668 4.43288 1.22308C4.2766 1.37936 4.1888 1.59132 4.1888 1.81234V4.31234H1.6888C1.46779 4.31234 1.25583 4.40013 1.09955 4.55642C0.943266 4.7127 0.855469 4.92466 0.855469 5.14567C0.855469 5.36668 0.943266 5.57865 1.09955 5.73493C1.25583 5.89121 1.46779 5.979 1.6888 5.979H4.1888V13.479C4.19013 14.5837 4.62954 15.6427 5.41065 16.4238C6.19177 17.2049 7.25081 17.6443 8.35547 17.6457H15.8555V20.1457C15.8555 20.3667 15.9433 20.5786 16.0995 20.7349C16.2558 20.8912 16.4678 20.979 16.6888 20.979C16.9098 20.979 17.1218 20.8912 17.2781 20.7349C17.4343 20.5786 17.5221 20.3667 17.5221 20.1457V17.6457H20.0221C20.2431 17.6457 20.4551 17.5579 20.6114 17.4016C20.7677 17.2453 20.8555 17.0333 20.8555 16.8123C20.8555 16.5913 20.7677 16.3794 20.6114 16.2231C20.4551 16.0668 20.2431 15.979 20.0221 15.979ZM8.35547 15.979C7.69243 15.979 7.05654 15.7156 6.5877 15.2468C6.11886 14.7779 5.85547 14.142 5.85547 13.479V5.979H13.3555C14.0185 5.979 14.6544 6.2424 15.1232 6.71124C15.5921 7.18008 15.8555 7.81596 15.8555 8.479V15.979H8.35547Z" fill="black"/>
</svg>
