<svg width="16" height="16" viewBox="0 0 16 16" fill="none" stroke="#324B6F" xmlns="http://www.w3.org/2000/svg">
<path d="M12.8825 6.3125C12.8825 6.3125 12.5205 10.8025 12.3105 12.6938C12.2105 13.5972 11.6525 14.1265 10.7385 14.1432C8.99921 14.1745 7.25788 14.1765 5.51921 14.1398C4.63987 14.1218 4.09121 13.5858 3.99321 12.6985C3.78188 10.7905 3.42188 6.3125 3.42188 6.3125" stroke-width="1.5" stroke-linecap="round" stroke-linejoin="round"/>
<path d="M13.8053 4.16048H2.5" stroke-width="1.5" stroke-linecap="round" stroke-linejoin="round"/>
<path d="M11.6284 4.15998C11.105 4.15998 10.6544 3.78998 10.5517 3.27732L10.3897 2.46665C10.2897 2.09265 9.95102 1.83398 9.56502 1.83398H6.74302C6.35702 1.83398 6.01835 2.09265 5.91835 2.46665L5.75635 3.27732C5.65369 3.78998 5.20302 4.15998 4.67969 4.15998" stroke-width="1.5" stroke-linecap="round" stroke-linejoin="round"/>
</svg>
