<svg width="12" height="6" viewBox="0 0 12 6" fill="none" xmlns="http://www.w3.org/2000/svg">
<path d="M10.8669 1.10476L10.8668 1.10476L10.8669 1.1123C10.867 1.15339 10.8579 1.19398 10.8403 1.2311C10.8228 1.268 10.7973 1.30054 10.7657 1.32635C10.7655 1.3265 10.7653 1.32666 10.7651 1.32682L6.11646 5.06898L6.11644 5.06895L6.11249 5.0722C6.06328 5.11265 6.00155 5.13477 5.93785 5.13477C5.87457 5.13477 5.81324 5.11294 5.76419 5.073L1.11569 1.19925L1.1152 1.19884C1.05891 1.15206 1.02351 1.08482 1.01679 1.01194C1.01007 0.93905 1.03258 0.866478 1.07937 0.810187C1.12616 0.753897 1.19339 0.718498 1.26628 0.711777C1.33908 0.705065 1.41157 0.727516 1.46784 0.774196C1.4679 0.774249 1.46796 0.774301 1.46803 0.774354L5.6215 4.23816L5.93632 4.50071L6.25549 4.24347L10.4096 0.895385L10.4096 0.895437L10.4159 0.890246C10.4562 0.856615 10.5054 0.835253 10.5575 0.828686L10.495 0.332607L10.5575 0.828686C10.6096 0.822119 10.6626 0.830621 10.71 0.853189C10.7575 0.875755 10.7975 0.911441 10.8253 0.956026C10.8531 1.00061 10.8675 1.05222 10.8669 1.10476Z" fill="#242424" stroke="#242424"/>
</svg>
