<svg width="18" height="18" viewBox="0 0 18 18" fill="#324B6F" xmlns="http://www.w3.org/2000/svg">
<path fill-rule="evenodd" clip-rule="evenodd" d="M12.4327 16.7763H5.81475C3.234 16.7763 1.5 14.9651 1.5 12.2696V6.03409C1.5 3.33859 3.234 1.52734 5.81475 1.52734H8.619C8.9295 1.52734 9.1815 1.77934 9.1815 2.08984C9.1815 2.40034 8.9295 2.65234 8.619 2.65234H5.81475C3.87675 2.65234 2.625 3.97984 2.625 6.03409V12.2696C2.625 14.3238 3.87675 15.6513 5.81475 15.6513H12.4327C14.3707 15.6513 15.6232 14.3238 15.6232 12.2696V9.24859C15.6232 8.93809 15.8752 8.68609 16.1857 8.68609C16.4962 8.68609 16.7482 8.93809 16.7482 9.24859V12.2696C16.7482 14.9651 15.0135 16.7763 12.4327 16.7763Z"/>
<path fill-rule="evenodd" clip-rule="evenodd" d="M6.65106 11.5709H8.88382C9.16882 11.5709 9.43582 11.4607 9.63757 11.2589L15.2693 5.62719C15.5003 5.39619 15.6278 5.08869 15.6278 4.76169C15.6278 4.43394 15.5003 4.12569 15.2693 3.89469L14.3566 2.98194C13.8788 2.50569 13.1018 2.50569 12.6233 2.98194L7.01856 8.58669C6.82431 8.78094 6.71406 9.03894 6.70731 9.31269L6.65106 11.5709ZM8.88389 12.696H6.07439C5.92289 12.696 5.77739 12.6345 5.67164 12.5257C5.56589 12.4177 5.50814 12.2715 5.51189 12.1192L5.58239 9.285C5.59664 8.721 5.82389 8.19075 6.22289 7.791H6.22364L11.8284 2.18625C12.7449 1.27125 14.2351 1.27125 15.1516 2.18625L16.0644 3.099C16.5091 3.543 16.7536 4.13325 16.7529 4.76175C16.7529 5.39025 16.5084 5.97975 16.0644 6.423L10.4326 12.0547C10.0194 12.468 9.46889 12.696 8.88389 12.696Z" />
<path fill-rule="evenodd" clip-rule="evenodd" d="M14.7993 7.43678C14.6553 7.43678 14.5113 7.38203 14.4018 7.27178L10.9773 3.84728C10.7576 3.62753 10.7576 3.27128 10.9773 3.05153C11.1971 2.83178 11.5526 2.83178 11.7723 3.05153L15.1968 6.47678C15.4166 6.69653 15.4166 7.05203 15.1968 7.27178C15.0873 7.38203 14.9433 7.43678 14.7993 7.43678Z" />
</svg>
