<svg width="30" height="30" viewBox="0 0 30 30" fill="#324B6F" xmlns="http://www.w3.org/2000/svg">
<path fill-rule="evenodd" clip-rule="evenodd" d="M20.1982 10.2911C20.1982 13.2282 17.8567 15.5833 14.9366 15.5833C12.0165 15.5833 9.675 13.2282 9.675 10.2911C9.675 7.35283 12.0165 5 14.9366 5C17.8567 5 20.1982 7.35283 20.1982 10.2911ZM14.9371 24.9998C10.6481 24.9998 6.98589 24.3198 6.98589 21.6C6.98589 18.8791 10.6246 18.1743 14.9371 18.1743C19.226 18.1743 22.8882 18.8543 22.8882 21.5752C22.8882 24.2951 19.2496 24.9998 14.9371 24.9998ZM22.4463 10.3862C22.4463 11.8834 21.9997 13.2782 21.2162 14.4378C21.1357 14.5571 21.2073 14.7181 21.3494 14.7428C21.5453 14.7766 21.7479 14.7957 21.9538 14.8014C24.0077 14.8554 25.8511 13.5259 26.3603 11.5243C27.1147 8.55117 24.8997 5.88199 22.0792 5.88199C21.7725 5.88199 21.4793 5.91464 21.1939 5.97318C21.1547 5.98218 21.1133 6.0002 21.0909 6.0351C21.064 6.07787 21.0842 6.13529 21.111 6.17244C21.9583 7.36687 22.4463 8.8236 22.4463 10.3862ZM25.847 16.8912C27.227 17.1625 28.1348 17.7164 28.5108 18.5213C28.8287 19.1821 28.8287 19.9488 28.5108 20.6085C27.9355 21.8569 26.0809 22.2577 25.3601 22.3613C25.2113 22.3838 25.0915 22.2543 25.1072 22.1046C25.4754 18.6451 22.5463 17.0049 21.7886 16.6278C21.7561 16.6109 21.7494 16.585 21.7528 16.5692C21.755 16.558 21.7684 16.54 21.7931 16.5366C23.4328 16.5062 25.1956 16.7313 25.847 16.8912ZM8.04584 14.8013C8.25178 14.7957 8.45325 14.7776 8.65024 14.7427C8.79238 14.718 8.86401 14.557 8.78343 14.4377C7.99995 13.2781 7.55337 11.8833 7.55337 10.3861C7.55337 8.82351 8.04136 7.36678 8.88864 6.17235C8.9155 6.1352 8.93453 6.07778 8.90878 6.03501C8.8864 6.00123 8.84387 5.9821 8.80581 5.97309C8.51928 5.91455 8.22604 5.8819 7.91936 5.8819C5.09884 5.8819 2.88384 8.55108 3.63934 11.5242C4.1486 13.5258 5.99201 14.8553 8.04584 14.8013ZM8.24617 16.5679C8.24953 16.5848 8.24282 16.6096 8.21148 16.6276C7.45262 17.0047 4.52354 18.6449 4.89177 22.1033C4.90744 22.2541 4.7888 22.3824 4.63994 22.3611C3.91914 22.2575 2.06454 21.8567 1.48924 20.6082C1.17025 19.9474 1.17025 19.1819 1.48924 18.5211C1.86531 17.7162 2.7719 17.1623 4.15194 16.8899C4.80447 16.7311 6.56617 16.506 8.207 16.5364C8.23162 16.5398 8.24394 16.5578 8.24617 16.5679Z"/>
</svg>
