<svg width="34" height="27" viewBox="0 0 34 27" fill="none" xmlns="http://www.w3.org/2000/svg">
<rect width="34" height="27" fill="#E5E5E5"/>
<g id="personal stationary - paper">
<rect width="1440" height="2244" transform="translate(-872 -313)" fill="white"/>
<g id="paper">
<g id="orientation">
<g id="Group 302">
<rect id="Rectangle 493" x="1.08641" y="25.6169" width="25.0896" height="31.9383" transform="rotate(-89.4955 1.08641 25.6169)" fill="white" stroke="#324B6F"/>
<g id="3917688-1 1" clip-path="url(#clip2)">
<path id="Vector" d="M17.1655 17.0001C18.0555 17.0001 18.9256 16.7362 19.6656 16.2417C20.4056 15.7473 20.9824 15.0445 21.323 14.2222C21.6636 13.3999 21.7527 12.4951 21.5791 11.6222C21.4054 10.7493 20.9768 9.94748 20.3475 9.31814C19.7182 8.68881 18.9163 8.26022 18.0434 8.08659C17.1705 7.91296 16.2657 8.00207 15.4435 8.34267C14.6212 8.68326 13.9184 9.26004 13.4239 10.0001C12.9294 10.7401 12.6655 11.6101 12.6655 12.5001C12.6667 13.6932 13.1412 14.8371 13.9849 15.6808C14.8285 16.5244 15.9724 16.9989 17.1655 17.0001ZM17.1655 9.50012C17.7589 9.50012 18.3389 9.67607 18.8322 10.0057C19.3256 10.3354 19.7101 10.8039 19.9372 11.3521C20.1642 11.9003 20.2236 12.5035 20.1079 13.0854C19.9921 13.6673 19.7064 14.2019 19.2868 14.6214C18.8673 15.041 18.3327 15.3267 17.7508 15.4425C17.1689 15.5582 16.5657 15.4988 16.0175 15.2718C15.4693 15.0447 15.0008 14.6602 14.6711 14.1668C14.3415 13.6735 14.1655 13.0935 14.1655 12.5001C14.1655 11.7045 14.4816 10.9414 15.0442 10.3788C15.6068 9.81619 16.3699 9.50012 17.1655 9.50012Z" fill="#324B6F"/>
<path id="Vector_2" d="M17.1655 18.5001C15.3759 18.502 13.6602 19.2138 12.3947 20.4793C11.1293 21.7447 10.4175 23.4605 10.4155 25.2501C10.4155 25.449 10.4945 25.6397 10.6352 25.7804C10.7758 25.921 10.9666 26.0001 11.1655 26.0001C11.3644 26.0001 11.5552 25.921 11.6959 25.7804C11.8365 25.6397 11.9155 25.449 11.9155 25.2501C11.9155 23.8577 12.4687 22.5223 13.4532 21.5378C14.4378 20.5532 15.7731 20.0001 17.1655 20.0001C18.5579 20.0001 19.8933 20.5532 20.8778 21.5378C21.8624 22.5223 22.4155 23.8577 22.4155 25.2501C22.4155 25.449 22.4945 25.6397 22.6352 25.7804C22.7758 25.921 22.9666 26.0001 23.1655 26.0001C23.3644 26.0001 23.5552 25.921 23.6959 25.7804C23.8365 25.6397 23.9155 25.449 23.9155 25.2501C23.9135 23.4605 23.2017 21.7447 21.9363 20.4793C20.6709 19.2138 18.9551 18.502 17.1655 18.5001Z" fill="#324B6F"/>
</g>
</g>
</g>
</g>
</g>
<defs>
<clipPath id="clip2">
<rect width="18" height="18" fill="white" transform="translate(8.16553 8.00006)"/>
</clipPath>
</defs>
</svg>
