<svg width="27" height="34" viewBox="0 0 27 34" fill="none" xmlns="http://www.w3.org/2000/svg">
<rect width="27" height="34" fill="#E5E5E5"/>
<g id="portrait-personal stationary - paper">
<rect width="1440" height="2244" transform="translate(-831 -308)" fill="white"/>
<g id="portrait-paper">
<g id="portrait-orientation">
<g id="Group 303">
<rect id="Rectangle 491" x="0.988281" y="0.918457" width="25.0896" height="31.9383" fill="white" stroke="#324B6F"/>
<g id="3917688-1 2" clip-path="url(#clip1)">
<path id="Vector" d="M13.5332 24.0001C14.4232 24.0001 15.2932 23.7361 16.0333 23.2417C16.7733 22.7472 17.3501 22.0444 17.6907 21.2221C18.0313 20.3999 18.1204 19.4951 17.9467 18.6222C17.7731 17.7492 17.3445 16.9474 16.7152 16.3181C16.0858 15.6887 15.284 15.2602 14.4111 15.0865C13.5382 14.9129 12.6334 15.002 11.8111 15.3426C10.9889 15.6832 10.2861 16.26 9.79159 17C9.29712 17.74 9.0332 18.61 9.0332 19.5001C9.03439 20.6932 9.50888 21.8371 10.3525 22.6807C11.1962 23.5244 12.3401 23.9989 13.5332 24.0001ZM13.5332 16.5001C14.1265 16.5001 14.7066 16.676 15.1999 17.0057C15.6933 17.3353 16.0778 17.8038 16.3048 18.352C16.5319 18.9002 16.5913 19.5034 16.4756 20.0853C16.3598 20.6673 16.0741 21.2018 15.6545 21.6214C15.235 22.0409 14.7004 22.3267 14.1185 22.4424C13.5365 22.5582 12.9333 22.4988 12.3852 22.2717C11.837 22.0446 11.3684 21.6601 11.0388 21.1668C10.7092 20.6734 10.5332 20.0934 10.5332 19.5001C10.5332 18.7044 10.8493 17.9414 11.4119 17.3787C11.9745 16.8161 12.7376 16.5001 13.5332 16.5001Z" fill="#324B6F"/>
<path id="Vector_2" d="M13.5332 25.5C11.7436 25.502 10.0279 26.2138 8.76242 27.4792C7.49698 28.7447 6.78519 30.4604 6.7832 32.25C6.7832 32.4489 6.86222 32.6397 7.00287 32.7803C7.14353 32.921 7.33429 33 7.5332 33C7.73212 33 7.92288 32.921 8.06353 32.7803C8.20419 32.6397 8.2832 32.4489 8.2832 32.25C8.2832 30.8576 8.83633 29.5223 9.82089 28.5377C10.8055 27.5531 12.1408 27 13.5332 27C14.9256 27 16.2609 27.5531 17.2455 28.5377C18.2301 29.5223 18.7832 30.8576 18.7832 32.25C18.7832 32.4489 18.8622 32.6397 19.0029 32.7803C19.1435 32.921 19.3343 33 19.5332 33C19.7321 33 19.9229 32.921 20.0635 32.7803C20.2042 32.6397 20.2832 32.4489 20.2832 32.25C20.2812 30.4604 19.5694 28.7447 18.304 27.4792C17.0385 26.2138 15.3228 25.502 13.5332 25.5Z" fill="#324B6F"/>
</g>
</g>
<rect id="Rectangle 493" x="-1.46875" y="-1.75146" width="30.1186" height="37.1453" stroke="#414141"/>
</g>
</g>
</g>
<defs>
<clipPath id="clip1">
<rect width="18" height="18" fill="white" transform="translate(4.5332 15)"/>
</clipPath>
</defs>
</svg>
