<svg width="16" height="16" viewBox="0 0 16 16" fill="none" xmlns="http://www.w3.org/2000/svg">
<path fill-rule="evenodd" clip-rule="evenodd" d="M13.71 7.10495C13.71 3.45731 10.7525 0.5 7.105 0.5C3.45686 0.5 0.5 3.45699 0.5 7.10495C0.5 10.7529 3.45686 13.7099 7.105 13.7099C8.53642 13.7099 9.89667 13.2517 11.0146 12.4291L13.8019 15.2165C14.1924 15.6071 14.8256 15.6071 15.2161 15.2166C15.6066 14.8261 15.6066 14.1929 15.2161 13.8024L12.4287 11.0148C13.2515 9.89647 13.71 8.53605 13.71 7.10495ZM10.3609 10.3611L10.5276 10.1855C11.2828 9.34728 11.71 8.26075 11.71 7.10495C11.71 4.56191 9.64793 2.5 7.105 2.5C4.56145 2.5 2.5 4.56154 2.5 7.10495C2.5 9.64837 4.56146 11.7099 7.105 11.7099C8.34359 11.7099 9.50171 11.2202 10.36 10.362C10.3603 10.3617 10.3606 10.3615 10.3608 10.3612" fill="white"/>
</svg>
