<svg width="22" height="22" viewBox="0 0 22 22" fill="none" xmlns="http://www.w3.org/2000/svg">
<path d="M19.7984 0H6.59844C5.38514 0 4.39844 0.9867 4.39844 2.2V15.4C4.39844 16.6133 5.38514 17.6 6.59844 17.6H19.7984C21.0117 17.6 21.9984 16.6133 21.9984 15.4V2.2C21.9984 0.9867 21.0117 0 19.7984 0ZM6.59844 15.4V2.2H19.7984L19.8006 15.4H6.59844Z" fill="#324B6F"/>
<path d="M2.2 6.60002H0V19.8C0 21.0133 0.9867 22 2.2 22H15.4V19.8H2.2V6.60002ZM12.0263 10.4709L10.1277 8.57232L8.5723 10.1277L12.1737 13.7291L18.4459 6.20512L16.7541 4.79492L12.0263 10.4709Z" fill="#324B6F"/>
</svg>
