<svg width="16" height="16" viewBox="0 0 16 16" fill="#324B6F" xmlns="http://www.w3.org/2000/svg">
<g clip-path="url(#clip0)">
<path d="M15.8797 0.744433C15.833 0.705428 15.7765 0.679961 15.7163 0.670794C15.6561 0.661628 15.5946 0.669111 15.5384 0.692432L0.205031 7.02577C0.143744 7.05132 0.0914876 7.09461 0.0549611 7.15006C0.0184347 7.20551 -0.000696878 7.27061 1.94016e-05 7.33701C0.000735681 7.40341 0.0212671 7.46808 0.0589814 7.52274C0.0966957 7.57739 0.149874 7.61953 0.211698 7.64377L4.43303 9.2831C4.4841 9.30301 4.53929 9.31002 4.59371 9.3035C4.64813 9.29699 4.7001 9.27716 4.74503 9.24577L10.345 5.2631C10.4136 5.21355 10.4984 5.1919 10.5823 5.20254C10.6662 5.21319 10.7429 5.25533 10.7969 5.32042C10.8509 5.38552 10.8781 5.46871 10.8731 5.55313C10.868 5.63756 10.8311 5.7169 10.7697 5.7751L6.10303 10.2718C6.07077 10.3029 6.04511 10.3401 6.02759 10.3814C6.01006 10.4226 6.00103 10.467 6.00103 10.5118V15.0004C6.00124 15.0735 6.02546 15.1445 6.06995 15.2024C6.11444 15.2604 6.17674 15.3021 6.24727 15.3212C6.3178 15.3403 6.39265 15.3357 6.4603 15.3081C6.52795 15.2805 6.58466 15.2314 6.6217 15.1684L8.73303 11.5518C8.75507 11.5143 8.79085 11.4868 8.8328 11.4752C8.87474 11.4636 8.91954 11.4689 8.9577 11.4898L12.8417 13.6231C12.8872 13.6482 12.9379 13.6623 12.9898 13.6643C13.0417 13.6663 13.0933 13.6561 13.1406 13.6346C13.1879 13.6131 13.2295 13.5808 13.2621 13.5404C13.2947 13.5 13.3174 13.4525 13.3284 13.4018L15.995 1.06843C16.0065 1.00905 16.0018 0.94768 15.9816 0.890703C15.9613 0.833726 15.9261 0.78322 15.8797 0.744433Z"/>
</g>
<defs>
<clipPath id="clip0">
<rect width="16" height="16" fill="white"/>
</clipPath>
</defs>
</svg>
