<svg width="12" height="12" viewBox="0 0 12 12" fill="none" xmlns="http://www.w3.org/2000/svg">
<path d="M6 11.25C4.60761 11.25 3.27226 10.6969 2.28769 9.71231C1.30312 8.72774 0.75 7.39239 0.75 6C0.75 4.60761 1.30312 3.27226 2.28769 2.28769C3.27226 1.30312 4.60761 0.75 6 0.75C7.39239 0.75 8.72774 1.30312 9.71231 2.28769C10.6969 3.27226 11.25 4.60761 11.25 6C11.25 7.39239 10.6969 8.72774 9.71231 9.71231C8.72774 10.6969 7.39239 11.25 6 11.25ZM6 12C7.5913 12 9.11742 11.3679 10.2426 10.2426C11.3679 9.11742 12 7.5913 12 6C12 4.4087 11.3679 2.88258 10.2426 1.75736C9.11742 0.632141 7.5913 0 6 0C4.4087 0 2.88258 0.632141 1.75736 1.75736C0.632141 2.88258 0 4.4087 0 6C0 7.5913 0.632141 9.11742 1.75736 10.2426C2.88258 11.3679 4.4087 12 6 12Z" fill="white"/>
<path d="M3.48419 3.4845C3.51903 3.44958 3.56041 3.42187 3.60597 3.40296C3.65153 3.38406 3.70037 3.37433 3.74969 3.37433C3.79902 3.37433 3.84786 3.38406 3.89342 3.40296C3.93898 3.42187 3.98036 3.44958 4.01519 3.4845L5.99969 5.46975L7.98419 3.4845C8.01906 3.44963 8.06045 3.42198 8.10601 3.40311C8.15156 3.38424 8.20039 3.37452 8.24969 3.37452C8.299 3.37452 8.34783 3.38424 8.39338 3.40311C8.43894 3.42198 8.48033 3.44963 8.51519 3.4845C8.55006 3.51936 8.57772 3.56076 8.59659 3.60631C8.61546 3.65187 8.62517 3.70069 8.62517 3.75C8.62517 3.79931 8.61546 3.84813 8.59659 3.89369C8.57772 3.93924 8.55006 3.98063 8.51519 4.0155L6.52994 6L8.51519 7.9845C8.55006 8.01936 8.57772 8.06076 8.59659 8.10631C8.61546 8.15187 8.62517 8.20069 8.62517 8.25C8.62517 8.29931 8.61546 8.34813 8.59659 8.39369C8.57772 8.43924 8.55006 8.48063 8.51519 8.5155C8.48033 8.55036 8.43894 8.57802 8.39338 8.59689C8.34783 8.61576 8.299 8.62547 8.24969 8.62547C8.20039 8.62547 8.15156 8.61576 8.10601 8.59689C8.06045 8.57802 8.01906 8.55036 7.98419 8.5155L5.99969 6.53025L4.01519 8.5155C3.98033 8.55036 3.93894 8.57802 3.89338 8.59689C3.84783 8.61576 3.799 8.62547 3.74969 8.62547C3.70039 8.62547 3.65156 8.61576 3.60601 8.59689C3.56045 8.57802 3.51906 8.55036 3.48419 8.5155C3.44933 8.48063 3.42167 8.43924 3.4028 8.39369C3.38393 8.34813 3.37422 8.29931 3.37422 8.25C3.37422 8.20069 3.38393 8.15187 3.4028 8.10631C3.42167 8.06076 3.44933 8.01936 3.48419 7.9845L5.46944 6L3.48419 4.0155C3.44927 3.98066 3.42156 3.93928 3.40266 3.89372C3.38375 3.84817 3.37402 3.79932 3.37402 3.75C3.37402 3.70067 3.38375 3.65183 3.40266 3.60627C3.42156 3.56071 3.44927 3.51933 3.48419 3.4845Z" fill="white"/>
</svg>
