<svg width="13" height="12" viewBox="0 0 13 12" fill="none" xmlns="http://www.w3.org/2000/svg">
<path fill-rule="evenodd" clip-rule="evenodd" d="M5.73517 0.109316C5.77 0.0743934 5.81139 0.0466863 5.85695 0.0277814C5.9025 0.00887661 5.95134 -0.000854492 6.00067 -0.000854492C6.05 -0.000854492 6.09884 0.00887661 6.14439 0.0277814C6.18995 0.0466863 6.23134 0.0743934 6.26617 0.109316L7.76617 1.60932C7.80104 1.64418 7.82869 1.68557 7.84756 1.73113C7.86643 1.77668 7.87614 1.82551 7.87614 1.87482C7.87614 1.92412 7.86643 1.97295 7.84756 2.0185C7.82869 2.06406 7.80104 2.10545 7.76617 2.14032C7.7313 2.17518 7.68991 2.20284 7.64436 2.22171C7.5988 2.24058 7.54998 2.25029 7.50067 2.25029C7.45136 2.25029 7.40254 2.24058 7.35698 2.22171C7.31143 2.20284 7.27004 2.17518 7.23517 2.14032L6.37567 1.28007V4.12482C6.37567 4.22427 6.33616 4.31965 6.26584 4.38998C6.19551 4.46031 6.10013 4.49982 6.00067 4.49982C5.90121 4.49982 5.80583 4.46031 5.73551 4.38998C5.66518 4.31965 5.62567 4.22427 5.62567 4.12482V1.28007L4.76617 2.14032C4.69576 2.21073 4.60025 2.25029 4.50067 2.25029C4.40109 2.25029 4.30558 2.21073 4.23517 2.14032C4.16476 2.0699 4.1252 1.9744 4.1252 1.87482C4.1252 1.77523 4.16476 1.67973 4.23517 1.60932L5.73517 0.109316ZM6.00067 7.49982C6.10013 7.49982 6.19551 7.53932 6.26584 7.60965C6.33616 7.67998 6.37567 7.77536 6.37567 7.87482V10.7196L7.23517 9.85932C7.30558 9.7889 7.40109 9.74934 7.50067 9.74934C7.60025 9.74934 7.69576 9.7889 7.76617 9.85932C7.83659 9.92973 7.87614 10.0252 7.87614 10.1248C7.87614 10.2244 7.83659 10.3199 7.76617 10.3903L6.26617 11.8903C6.23134 11.9252 6.18995 11.9529 6.14439 11.9718C6.09884 11.9908 6.05 12.0005 6.00067 12.0005C5.95134 12.0005 5.9025 11.9908 5.85695 11.9718C5.81139 11.9529 5.77 11.9252 5.73517 11.8903L4.23517 10.3903C4.2003 10.3554 4.17265 10.3141 4.15378 10.2685C4.13491 10.2229 4.1252 10.1741 4.1252 10.1248C4.1252 10.0755 4.13491 10.0267 4.15378 9.98113C4.17265 9.93557 4.2003 9.89418 4.23517 9.85932C4.30558 9.7889 4.40109 9.74934 4.50067 9.74934C4.54998 9.74934 4.5988 9.75905 4.64436 9.77792C4.68991 9.79679 4.7313 9.82445 4.76617 9.85932L5.62567 10.7196V7.87482C5.62567 7.77536 5.66518 7.67998 5.73551 7.60965C5.80583 7.53932 5.90121 7.49982 6.00067 7.49982ZM0.11017 6.26532C0.0752479 6.23048 0.0475408 6.1891 0.0286359 6.14354C0.0097311 6.09798 0 6.04914 0 5.99982C0 5.95049 0.0097311 5.90165 0.0286359 5.85609C0.0475408 5.81053 0.0752479 5.76915 0.11017 5.73432L1.61017 4.23432C1.68059 4.1639 1.77609 4.12434 1.87567 4.12434C1.97525 4.12434 2.07076 4.1639 2.14117 4.23432C2.21159 4.30473 2.25114 4.40023 2.25114 4.49982C2.25114 4.5994 2.21159 4.6949 2.14117 4.76532L1.28092 5.62482H4.12567C4.22513 5.62482 4.32051 5.66432 4.39084 5.73465C4.46116 5.80498 4.50067 5.90036 4.50067 5.99982C4.50067 6.09927 4.46116 6.19465 4.39084 6.26498C4.32051 6.33531 4.22513 6.37482 4.12567 6.37482H1.28092L2.14117 7.23432C2.21159 7.30473 2.25114 7.40023 2.25114 7.49982C2.25114 7.5994 2.21159 7.6949 2.14117 7.76532C2.07076 7.83573 1.97525 7.87529 1.87567 7.87529C1.77609 7.87529 1.68059 7.83573 1.61017 7.76532L0.11017 6.26532ZM7.50067 5.99982C7.50067 5.90036 7.54018 5.80498 7.61051 5.73465C7.68083 5.66432 7.77621 5.62482 7.87567 5.62482H10.7204L9.86017 4.76532C9.8253 4.73045 9.79765 4.68906 9.77878 4.6435C9.75991 4.59795 9.7502 4.54912 9.7502 4.49982C9.7502 4.45051 9.75991 4.40168 9.77878 4.35613C9.79765 4.31057 9.8253 4.26918 9.86017 4.23432C9.93058 4.1639 10.0261 4.12434 10.1257 4.12434C10.175 4.12434 10.2238 4.13405 10.2694 4.15292C10.3149 4.17179 10.3563 4.19945 10.3912 4.23432L11.8912 5.73432C11.9261 5.76915 11.9538 5.81053 11.9727 5.85609C11.9916 5.90165 12.0013 5.95049 12.0013 5.99982C12.0013 6.04914 11.9916 6.09798 11.9727 6.14354C11.9538 6.1891 11.9261 6.23048 11.8912 6.26532L10.3912 7.76532C10.3563 7.80018 10.3149 7.82784 10.2694 7.84671C10.2238 7.86558 10.175 7.87529 10.1257 7.87529C10.0764 7.87529 10.0275 7.86558 9.98198 7.84671C9.93643 7.82784 9.89504 7.80018 9.86017 7.76532C9.8253 7.73045 9.79765 7.68906 9.77878 7.6435C9.75991 7.59795 9.7502 7.54912 9.7502 7.49982C9.7502 7.45051 9.75991 7.40168 9.77878 7.35613C9.79765 7.31057 9.8253 7.26918 9.86017 7.23432L10.7204 6.37482H7.87567C7.77621 6.37482 7.68083 6.33531 7.61051 6.26498C7.54018 6.19465 7.50067 6.09927 7.50067 5.99982Z" fill="white"/>
</svg>
