<svg width="22" height="22" viewBox="0 0 22 22" fill="none" xmlns="http://www.w3.org/2000/svg">
<g clip-path="url(#clip0)">
<path d="M17.3633 0.998657H5.11328C3.95339 1.00005 2.84139 1.46143 2.02122 2.2816C1.20105 3.10177 0.739671 4.21376 0.738281 5.37366L0.738281 17.6237C0.739671 18.7836 1.20105 19.8955 2.02122 20.7157C2.84139 21.5359 3.95339 21.9973 5.11328 21.9987H17.3633C18.5232 21.9973 19.6352 21.5359 20.4553 20.7157C21.2755 19.8955 21.7369 18.7836 21.7383 17.6237V5.37366C21.7369 4.21376 21.2755 3.10177 20.4553 2.2816C19.6352 1.46143 18.5232 1.00005 17.3633 0.998657V0.998657ZM19.9883 17.6237C19.9883 18.3199 19.7117 18.9875 19.2194 19.4798C18.7272 19.9721 18.0595 20.2487 17.3633 20.2487H5.11328C4.41709 20.2487 3.74941 19.9721 3.25713 19.4798C2.76484 18.9875 2.48828 18.3199 2.48828 17.6237V5.37366C2.48828 4.67746 2.76484 4.00978 3.25713 3.5175C3.74941 3.02522 4.41709 2.74866 5.11328 2.74866H17.3633C18.0595 2.74866 18.7272 3.02522 19.2194 3.5175C19.7117 4.00978 19.9883 4.67746 19.9883 5.37366V17.6237ZM16.4883 8.87366C16.4883 9.10572 16.3961 9.32828 16.232 9.49238C16.0679 9.65647 15.8453 9.74866 15.6133 9.74866C15.3812 9.74866 15.1587 9.65647 14.9946 9.49238C14.8305 9.32828 14.7383 9.10572 14.7383 8.87366C14.7383 8.64159 14.6461 8.41903 14.482 8.25494C14.3179 8.09084 14.0953 7.99866 13.8633 7.99866H12.1133V14.9987H12.9883C13.2203 14.9987 13.4429 15.0908 13.607 15.2549C13.7711 15.419 13.8633 15.6416 13.8633 15.8737C13.8633 16.1057 13.7711 16.3283 13.607 16.4924C13.4429 16.6565 13.2203 16.7487 12.9883 16.7487H9.48828C9.25622 16.7487 9.03366 16.6565 8.86956 16.4924C8.70547 16.3283 8.61328 16.1057 8.61328 15.8737C8.61328 15.6416 8.70547 15.419 8.86956 15.2549C9.03366 15.0908 9.25622 14.9987 9.48828 14.9987H10.3633V7.99866H8.61328C8.38122 7.99866 8.15866 8.09084 7.99456 8.25494C7.83047 8.41903 7.73828 8.64159 7.73828 8.87366C7.73828 9.10572 7.64609 9.32828 7.482 9.49238C7.31791 9.65647 7.09535 9.74866 6.86328 9.74866C6.63122 9.74866 6.40866 9.65647 6.24456 9.49238C6.08047 9.32828 5.98828 9.10572 5.98828 8.87366C5.98828 8.17746 6.26484 7.50979 6.75713 7.0175C7.24941 6.52522 7.91709 6.24866 8.61328 6.24866H13.8633C14.5595 6.24866 15.2272 6.52522 15.7194 7.0175C16.2117 7.50979 16.4883 8.17746 16.4883 8.87366Z" fill="white"/>
</g>
<defs>
<clipPath id="clip0">
<rect width="21" height="21" fill="white" transform="translate(0.738281 0.998657)"/>
</clipPath>
</defs>
</svg>
