<svg width="22" height="22" viewBox="0 0 22 22" fill="none" xmlns="http://www.w3.org/2000/svg">
<g clip-path="url(#clip0)">
<path d="M20.7347 2.00312C20.1398 1.40916 19.3335 1.07556 18.4929 1.07556C17.6523 1.07556 16.846 1.40916 16.2512 2.00312L2.02017 16.2341C1.61264 16.6394 1.28951 17.1214 1.06948 17.6523C0.849449 18.1832 0.736883 18.7525 0.738294 19.3272V21.1236C0.738294 21.3557 0.830482 21.5782 0.994576 21.7423C1.15867 21.9064 1.38123 21.9986 1.61329 21.9986H3.40967C3.98434 22.0002 4.55362 21.8879 5.08456 21.668C5.61549 21.4481 6.09754 21.1251 6.50279 20.7176L20.7347 6.48574C21.3284 5.89091 21.6618 5.08484 21.6618 4.24443C21.6618 3.40402 21.3284 2.59795 20.7347 2.00312ZM5.26554 19.4804C4.77205 19.9706 4.10526 20.2466 3.40967 20.2486H2.48829V19.3272C2.48741 18.9824 2.55493 18.6408 2.68695 18.3223C2.81897 18.0037 3.01287 17.7145 3.25742 17.4714L14.0575 6.67124L16.07 8.68374L5.26554 19.4804ZM19.4965 5.24849L17.3038 7.44212L15.2913 5.43399L17.4849 3.24037C17.6171 3.10851 17.7739 3.00397 17.9464 2.93272C18.119 2.86148 18.3039 2.82491 18.4905 2.82511C18.6772 2.82531 18.862 2.86228 19.0344 2.93391C19.2068 3.00553 19.3634 3.11041 19.4952 3.24255C19.6271 3.3747 19.7316 3.53152 19.8029 3.70406C19.8741 3.8766 19.9107 4.06149 19.9105 4.24816C19.9103 4.43484 19.8733 4.61965 19.8017 4.79203C19.7301 4.96442 19.6252 5.12101 19.493 5.25287L19.4965 5.24849Z" fill="#324B6F"/>
</g>
<defs>
<clipPath id="clip0">
<rect width="21" height="21" fill="white" transform="translate(0.738281 0.998657)"/>
</clipPath>
</defs>
</svg>
