<svg width="22" height="22" viewBox="0 0 22 22" fill="none" xmlns="http://www.w3.org/2000/svg">
<g clip-path="url(#clip0)">
<path d="M13.8703 21.8252C13.3853 21.826 12.9096 21.6927 12.4956 21.4401C12.0816 21.1875 11.7455 20.8254 11.5244 20.3937L8.78828 14.5277L5.68903 17.2341C5.56249 17.3447 5.40678 17.4165 5.24051 17.4409C5.07425 17.4654 4.90447 17.4414 4.75146 17.3719C4.59845 17.3024 4.46869 17.1903 4.37768 17.0491C4.28668 16.9078 4.23828 16.7433 4.23828 16.5752V3.43274C4.23826 2.92709 4.38428 2.4322 4.65879 2.00755C4.9333 1.5829 5.32461 1.24657 5.78569 1.039C6.24678 0.831421 6.758 0.761435 7.2579 0.83745C7.75781 0.913465 8.22512 1.13225 8.60366 1.46749L17.9662 10.4257C18.0876 10.5418 18.1732 10.6903 18.2125 10.8537C18.2518 11.017 18.2433 11.1882 18.1879 11.3468C18.1325 11.5054 18.0327 11.6448 17.9003 11.7482C17.7678 11.8515 17.6085 11.9146 17.4412 11.9299L13.5317 12.286L16.2135 18.0339C16.4117 18.4334 16.5048 18.8769 16.4841 19.3225C16.4633 19.768 16.3293 20.2009 16.0948 20.5803C15.8604 20.9597 15.5331 21.2731 15.1438 21.491C14.7546 21.7088 14.3163 21.8238 13.8703 21.8252ZM9.08841 12.2282C9.14924 12.2283 9.20992 12.2344 9.26953 12.2466C9.40237 12.2746 9.52686 12.3332 9.63317 12.4176C9.73948 12.5021 9.82468 12.6101 9.88203 12.7331L13.0977 19.6246C13.1517 19.7261 13.2251 19.816 13.3139 19.8892C13.4026 19.9623 13.5049 20.0172 13.6149 20.0508C13.7249 20.0844 13.8404 20.096 13.9548 20.085C14.0693 20.0739 14.1804 20.0404 14.282 19.9864C14.3835 19.9324 14.4734 19.859 14.5465 19.7702C14.6196 19.6815 14.6746 19.5792 14.7082 19.4692C14.7418 19.3592 14.7534 19.2437 14.7423 19.1293C14.7313 19.0148 14.6978 18.9036 14.6438 18.8021L11.422 11.8975C11.3626 11.7703 11.3347 11.6306 11.3406 11.4903C11.3465 11.35 11.3861 11.2132 11.4561 11.0914C11.526 10.9697 11.6242 10.8665 11.7424 10.7907C11.8606 10.7149 11.9953 10.6687 12.1352 10.6559L15.3727 10.361L7.41803 2.75549C7.29337 2.64956 7.14081 2.58183 6.97863 2.56041C6.81645 2.53899 6.65154 2.5648 6.50366 2.63474C6.34908 2.70272 6.21786 2.81457 6.12625 2.95642C6.03464 3.09827 5.98667 3.26389 5.98828 3.43274V14.6502L8.51266 12.4452C8.67197 12.3056 8.87655 12.2285 9.08841 12.2282Z" fill="#324B6F"/>
</g>
<defs>
<clipPath id="clip0">
<rect width="21" height="21" fill="white" transform="translate(0.738281 0.825317)"/>
</clipPath>
</defs>
</svg>
