<svg width="18" height="17" viewBox="0 0 18 17" fill="none" xmlns="http://www.w3.org/2000/svg">
<path d="M17.1133 14.3266H14.1304C15.7222 12.5937 16.6254 10.3307 16.657 7.96678H16.657V7.96411C16.657 5.75922 15.9156 3.90126 14.6084 2.59402C13.3011 1.28678 11.4432 0.545361 9.23828 0.545361C7.03339 0.545361 5.17543 1.28678 3.86819 2.59402C2.56095 3.90126 1.81953 5.75922 1.81951 7.96411L1.81955 7.96678C1.85113 10.3307 2.75432 12.5937 4.34614 14.3266H1.36328H1.16328V14.5266V15.8391V16.0391H1.36328H6.61328H6.81328V15.8391V14.3704V14.2707L6.73367 14.2107C5.76227 13.4785 4.9695 12.5356 4.41496 11.4529C3.86074 10.3709 3.55888 9.17734 3.53203 7.96193C3.5325 6.21295 4.09702 4.79117 5.08118 3.80701C6.06575 2.82244 7.4883 2.25786 9.23828 2.25786C10.9883 2.25786 12.4108 2.82244 13.3954 3.80701C14.3795 4.79117 14.9441 6.21295 14.9445 7.96193C14.9177 9.17734 14.6158 10.3709 14.0616 11.4529C13.5071 12.5356 12.7143 13.4785 11.7429 14.2107L11.6633 14.2707V14.3704V15.8391V16.0391H11.8633H17.1133H17.3133V15.8391V14.5266V14.3266H17.1133Z" fill="white" stroke="white" stroke-width="0.4"/>
</svg>
