<svg width="22" height="22" viewBox="0 0 22 22" fill="none" xmlns="http://www.w3.org/2000/svg">
<g clip-path="url(#clip0)">
<path d="M13.8703 21.8163C13.3853 21.8171 12.9096 21.6838 12.4956 21.4312C12.0816 21.1786 11.7455 20.8165 11.5244 20.3848L8.78828 14.5188L5.68903 17.2252C5.56249 17.3358 5.40678 17.4076 5.24051 17.432C5.07425 17.4565 4.90447 17.4325 4.75146 17.363C4.59845 17.2935 4.46869 17.1814 4.37768 17.0402C4.28668 16.8989 4.23828 16.7344 4.23828 16.5663V3.42383C4.23826 2.91818 4.38428 2.42328 4.65879 1.99864C4.9333 1.57399 5.32461 1.23766 5.78569 1.03008C6.24678 0.82251 6.758 0.752524 7.2579 0.828539C7.75781 0.904554 8.22512 1.12334 8.60366 1.45858L17.9662 10.4168C18.0876 10.5329 18.1732 10.6814 18.2125 10.8448C18.2518 11.0081 18.2433 11.1793 18.1879 11.3379C18.1325 11.4965 18.0327 11.6359 17.9003 11.7392C17.7678 11.8426 17.6085 11.9057 17.4412 11.921L13.5317 12.2771L16.2135 18.025C16.4117 18.4245 16.5048 18.868 16.4841 19.3136C16.4633 19.7591 16.3293 20.192 16.0948 20.5714C15.8604 20.9508 15.5331 21.2642 15.1438 21.482C14.7546 21.6999 14.3163 21.8149 13.8703 21.8163ZM9.08841 12.2193C9.14924 12.2194 9.20992 12.2255 9.26953 12.2377C9.40237 12.2657 9.52686 12.3243 9.63317 12.4087C9.73948 12.4931 9.82468 12.6012 9.88203 12.7242L13.0977 19.6157C13.1517 19.7172 13.2251 19.8071 13.3139 19.8802C13.4026 19.9534 13.5049 20.0083 13.6149 20.0419C13.7249 20.0755 13.8404 20.0871 13.9548 20.0761C14.0693 20.065 14.1804 20.0315 14.282 19.9775C14.3835 19.9235 14.4734 19.85 14.5465 19.7613C14.6196 19.6726 14.6746 19.5703 14.7082 19.4603C14.7418 19.3503 14.7534 19.2348 14.7423 19.1203C14.7313 19.0059 14.6978 18.8947 14.6438 18.7932L11.422 11.8886C11.3626 11.7614 11.3347 11.6217 11.3406 11.4814C11.3465 11.3411 11.3861 11.2043 11.4561 11.0825C11.526 10.9608 11.6242 10.8576 11.7424 10.7818C11.8606 10.706 11.9953 10.6597 12.1352 10.647L15.3727 10.3521L7.41803 2.74658C7.29337 2.64065 7.14081 2.57292 6.97863 2.5515C6.81645 2.53008 6.65154 2.55589 6.50366 2.62583C6.34908 2.69381 6.21786 2.80566 6.12625 2.94751C6.03464 3.08936 5.98667 3.25498 5.98828 3.42383V14.6413L8.51266 12.4363C8.67197 12.2967 8.87655 12.2196 9.08841 12.2193Z" fill="white"/>
</g>
<defs>
<clipPath id="clip0">
<rect width="21" height="21" fill="white" transform="translate(0.738281 0.816406)"/>
</clipPath>
</defs>
</svg>
