<svg width="22" height="21" viewBox="0 0 22 21" fill="none" xmlns="http://www.w3.org/2000/svg">
<g clip-path="url(#clip0)">
<path d="M17.6312 4.84402L14.5827 1.79377C14.0151 1.22339 13.34 0.771184 12.5966 0.463297C11.8532 0.155409 11.0561 -0.00205089 10.2514 2.01676e-05H6.30078C5.14089 0.00140954 4.02889 0.462792 3.20872 1.28296C2.38855 2.10313 1.92717 3.21512 1.92578 4.37502V16.625C1.92717 17.7849 2.38855 18.8969 3.20872 19.7171C4.02889 20.5372 5.14089 20.9986 6.30078 21H15.0508C16.2107 20.9986 17.3227 20.5372 18.1428 19.7171C18.963 18.8969 19.4244 17.7849 19.4258 16.625V9.17439C19.428 8.36976 19.2705 7.5727 18.9624 6.82937C18.6544 6.08604 18.2019 5.41123 17.6312 4.84402ZM16.3939 6.08127C16.6611 6.35615 16.8909 6.66506 17.0773 7.00002H13.3008C13.0687 7.00002 12.8462 6.90783 12.6821 6.74374C12.518 6.57964 12.4258 6.35708 12.4258 6.12502V2.34852C12.7608 2.53483 13.07 2.76429 13.3454 3.03102L16.3939 6.08127ZM17.6758 16.625C17.6758 17.3212 17.3992 17.9889 16.9069 18.4812C16.4147 18.9735 15.747 19.25 15.0508 19.25H6.30078C5.60459 19.25 4.93691 18.9735 4.44463 18.4812C3.95234 17.9889 3.67578 17.3212 3.67578 16.625V4.37502C3.67578 3.67883 3.95234 3.01115 4.44463 2.51886C4.93691 2.02658 5.60459 1.75002 6.30078 1.75002H10.2514C10.3949 1.75002 10.534 1.77802 10.6758 1.79115V6.12502C10.6758 6.82121 10.9523 7.48889 11.4446 7.98117C11.9369 8.47346 12.6046 8.75002 13.3008 8.75002H17.6347C17.6478 8.89177 17.6758 9.03002 17.6758 9.17439V16.625Z" fill="#324B6F"/>
</g>
<defs>
<clipPath id="clip0">
<rect width="21" height="21" fill="white" transform="translate(0.175781)"/>
</clipPath>
</defs>
</svg>
