<?xml version="1.0" encoding="UTF-8" standalone="no"?>
<!DOCTYPE svg PUBLIC "-//W3C//DTD SVG 1.1//EN" "http://www.w3.org/Graphics/SVG/1.1/DTD/svg11.dtd">
<svg version="1.1" xmlns="http://www.w3.org/2000/svg" xmlns:xlink="http://www.w3.org/1999/xlink" preserveAspectRatio="xMidYMid meet" viewBox="0 0 50 50" width="50" height="50"><defs><path d="M47.27 0.79C48.6 0.79 49.27 1.45 49.27 2.79C49.27 29.51 49.27 44.36 49.27 47.32C49.27 48.66 48.6 49.32 47.27 49.32C20.55 49.32 5.7 49.32 2.73 49.32C1.4 49.32 0.73 48.66 0.73 47.32C0.73 20.6 0.73 5.75 0.73 2.79C0.73 1.45 1.4 0.79 2.73 0.79C29.45 0.79 44.3 0.79 47.27 0.79Z" id="a2qi346dhp"></path><path d="M13.58 25.76C13.58 25.25 13.83 25 14.34 25C28.07 25 35.7 25 37.22 25C37.73 25 37.99 25.25 37.99 25.76C37.99 25.76 37.99 25.76 37.99 25.76C37.99 26.27 37.73 26.53 37.22 26.53C23.49 26.53 15.87 26.53 14.34 26.53C13.83 26.53 13.58 26.27 13.58 25.76C13.58 25.76 13.58 25.76 13.58 25.76Z" id="b1ZBQmfbj"></path><path d="M25 14.17C25.51 14.17 25.76 14.43 25.76 14.93C25.76 28.66 25.76 36.29 25.76 37.82C25.76 38.33 25.51 38.58 25 38.58C25 38.58 25 38.58 25 38.58C24.49 38.58 24.24 38.33 24.24 37.82C24.24 24.09 24.24 16.46 24.24 14.93C24.24 14.43 24.49 14.17 25 14.17C25 14.17 25 14.17 25 14.17Z" id="e5mm0mJAJ"></path></defs><g><g><g><use xlink:href="#a2qi346dhp" opacity="1" fill="#ebecee" fill-opacity="1"></use><g><use xlink:href="#a2qi346dhp" opacity="1" fill-opacity="0" stroke="#000000" stroke-width="1" stroke-opacity="0"></use></g></g><g><use xlink:href="#b1ZBQmfbj" opacity="1" fill="#324b6f" fill-opacity="1"></use><g><use xlink:href="#b1ZBQmfbj" opacity="1" fill-opacity="0" stroke="#000000" stroke-width="1" stroke-opacity="0"></use></g></g><g><use xlink:href="#e5mm0mJAJ" opacity="1" fill="#324b6f" fill-opacity="1"></use><g><use xlink:href="#e5mm0mJAJ" opacity="1" fill-opacity="0" stroke="#000000" stroke-width="1" stroke-opacity="0"></use></g></g></g></g></svg>