<svg width="24" height="24" viewBox="0 0 24 24" fill="none" xmlns="http://www.w3.org/2000/svg">
<g clip-path="url(#clip0)">
<path d="M23.4141 20.5917L19.2001 16.3777C20.6651 14.2132 21.2711 11.5805 20.8997 8.99332C20.5284 6.40614 19.2063 4.05016 17.1916 2.38514C15.1769 0.720115 12.6141 -0.134474 10.0033 -0.0118567C7.39247 0.110761 4.92102 1.20179 3.07122 3.04831C1.22143 4.89483 0.126036 7.36434 -0.00120161 9.97493C-0.128439 12.5855 0.721614 15.1499 2.38307 17.1675C4.04453 19.1852 6.39816 20.5114 8.98468 20.8873C11.5712 21.2632 14.205 20.6619 16.3721 19.2007L20.5861 23.4147C20.9645 23.7832 21.4719 23.9893 22.0001 23.9893C22.5283 23.9893 23.0356 23.7832 23.4141 23.4147C23.7875 23.0399 23.9971 22.5323 23.9971 22.0032C23.9971 21.4741 23.7875 20.9665 23.4141 20.5917ZM10.5001 2.0057C12.1812 2.0057 13.8246 2.50422 15.2224 3.43821C16.6202 4.3722 17.7097 5.69972 18.353 7.25289C18.9964 8.80606 19.1647 10.5151 18.8367 12.164C18.5088 13.8128 17.6992 15.3274 16.5105 16.5161C15.3217 17.7049 13.8072 18.5144 12.1583 18.8424C10.5095 19.1703 8.80042 19.002 7.24725 18.3587C5.69407 17.7153 4.36656 16.6259 3.43256 15.228C2.49857 13.8302 2.00006 12.1868 2.00006 10.5057C2.0027 8.25217 2.89908 6.0917 4.49257 4.49822C6.08606 2.90473 8.24653 2.00835 10.5001 2.0057Z" fill="#324B6F"/>
<path d="M7 11.5059H9.5V14.0059C9.5 14.2711 9.60536 14.5254 9.79289 14.713C9.98043 14.9005 10.2348 15.0059 10.5 15.0059C10.7652 15.0059 11.0196 14.9005 11.2071 14.713C11.3946 14.5254 11.5 14.2711 11.5 14.0059V11.5059H14C14.2652 11.5059 14.5196 11.4005 14.7071 11.213C14.8946 11.0254 15 10.7711 15 10.5059C15 10.2406 14.8946 9.98629 14.7071 9.79875C14.5196 9.61122 14.2652 9.50586 14 9.50586H11.5V7.00586C11.5 6.74064 11.3946 6.48629 11.2071 6.29875C11.0196 6.11122 10.7652 6.00586 10.5 6.00586C10.2348 6.00586 9.98043 6.11122 9.79289 6.29875C9.60536 6.48629 9.5 6.74064 9.5 7.00586V9.50586H7C6.73478 9.50586 6.48043 9.61122 6.29289 9.79875C6.10536 9.98629 6 10.2406 6 10.5059C6 10.7711 6.10536 11.0254 6.29289 11.213C6.48043 11.4005 6.73478 11.5059 7 11.5059Z" fill="#324B6F"/>
</g>
<defs>
<clipPath id="clip0">
<rect width="24" height="24" fill="white"/>
</clipPath>
</defs>
</svg>
